<svg width="26" height="23" viewBox="0 0 26 23" fill="none" xmlns="http://www.w3.org/2000/svg">
<path d="M23 3H19.535L17.8312 0.445C17.74 0.30819 17.6164 0.196004 17.4714 0.118382C17.3264 0.0407602 17.1645 9.87561e-05 17 0H9C8.83554 9.87561e-05 8.67363 0.0407602 8.52864 0.118382C8.38364 0.196004 8.26003 0.30819 8.16875 0.445L6.46375 3H3C2.20435 3 1.44129 3.31607 0.87868 3.87868C0.316071 4.44129 0 5.20435 0 6V20C0 20.7956 0.316071 21.5587 0.87868 22.1213C1.44129 22.6839 2.20435 23 3 23H23C23.7956 23 24.5587 22.6839 25.1213 22.1213C25.6839 21.5587 26 20.7956 26 20V6C26 5.20435 25.6839 4.44129 25.1213 3.87868C24.5587 3.31607 23.7956 3 23 3ZM17.5 12.5C17.5 13.39 17.2361 14.26 16.7416 15.0001C16.2471 15.7401 15.5443 16.3169 14.7221 16.6575C13.8998 16.9981 12.995 17.0872 12.1221 16.9135C11.2492 16.7399 10.4474 16.3113 9.81802 15.682C9.18868 15.0526 8.7601 14.2508 8.58647 13.3779C8.41283 12.505 8.50195 11.6002 8.84254 10.7779C9.18314 9.95566 9.75991 9.25285 10.4999 8.75839C11.24 8.26392 12.11 8 13 8C14.1935 8 15.3381 8.47411 16.182 9.31802C17.0259 10.1619 17.5 11.3065 17.5 12.5Z" fill="#111111"/>
</svg>
