<svg width="90" height="90" viewBox="0 0 90 90" fill="none" xmlns="http://www.w3.org/2000/svg">
<path d="M7.5 26.248V78.748C7.5 81.8605 11.025 83.623 13.5 81.748L19.9125 76.948C21.4125 75.823 23.5125 75.973 24.8625 77.323L31.0875 83.5855C32.55 85.048 34.95 85.048 36.4125 83.5855L42.7125 77.2855C44.025 75.973 46.125 75.823 47.5875 76.948L54 81.748C56.475 83.5855 60 81.823 60 78.748V14.998C60 10.873 63.375 7.49805 67.5 7.49805H26.25H22.5C11.25 7.49805 7.5 14.2105 7.5 22.498V26.248Z" fill="#3A93DB"/>
<path d="M67.5375 7.49805V13.123C70.0125 13.123 72.375 14.1355 74.1 15.823C75.9 17.6605 76.875 20.023 76.875 22.498V31.573C76.875 34.348 75.6375 35.623 72.825 35.623H65.625V15.0355C65.625 13.9855 66.4875 13.123 67.5375 13.123V7.49805ZM67.5375 7.49805C63.375 7.49805 60 10.873 60 15.0355V41.248H72.825C78.75 41.248 82.5 37.498 82.5 31.573V22.498C82.5 18.373 80.8125 14.623 78.1125 11.8855C75.375 9.18555 71.6625 7.53555 67.5375 7.49805C67.5375 7.49805 67.575 7.49805 67.5375 7.49805Z" fill="#3A93DB"/>
</svg>
