<svg width="40" height="40" viewBox="0 0 40 40" fill="none" xmlns="http://www.w3.org/2000/svg">
<path d="M4.87985 22.3994C4.60107 22.678 4.37992 23.0088 4.22903 23.3729C4.07815 23.737 4.00049 24.1273 4.00049 24.5214C4.00049 24.9155 4.07815 25.3058 4.22903 25.6699C4.37992 26.034 4.60107 26.3648 4.87985 26.6434L13.3638 35.1274C13.9264 35.6898 14.6894 36.0058 15.4848 36.0058C16.2803 36.0058 17.0433 35.6898 17.6059 35.1274L22.0299 30.7034C21.9376 29.6258 22.0613 28.5406 22.3938 27.5114L20.9879 28.9194L11.0878 19.0194L23.8158 6.29141C24.0034 6.10394 24.2577 5.99862 24.5229 5.99862C24.788 5.99862 25.0423 6.10394 25.2298 6.29141L33.7139 14.7774C33.9013 14.9649 34.0066 15.2192 34.0066 15.4844C34.0066 15.7496 33.9013 16.0039 33.7139 16.1914L27.5139 22.3934C28.5416 22.0576 29.6268 21.9338 30.7039 22.0294L35.1279 17.6054C35.6903 17.0428 36.0062 16.2799 36.0062 15.4844C36.0062 14.6889 35.6903 13.926 35.1279 13.3634L26.6439 4.87741C26.3652 4.59863 26.0344 4.37748 25.6703 4.22659C25.3062 4.07571 24.916 3.99805 24.5219 3.99805C24.1277 3.99805 23.7375 4.07571 23.3734 4.22659C23.0093 4.37748 22.6785 4.59863 22.3999 4.87741L4.87985 22.3994ZM6.29185 25.2294C6.10438 25.0419 5.99906 24.7876 5.99906 24.5224C5.99906 24.2572 6.10438 24.0029 6.29185 23.8154L9.67185 20.4354L19.5718 30.3354L16.1918 33.7154C16.0043 33.9029 15.75 34.0082 15.4848 34.0082C15.2197 34.0082 14.9654 33.9029 14.7778 33.7154L6.29185 25.2294ZM29.9999 35.9994C31.5912 35.9994 33.1173 35.3673 34.2425 34.2421C35.3677 33.1168 35.9999 31.5907 35.9999 29.9994C35.9999 28.4081 35.3677 26.882 34.2425 25.7568C33.1173 24.6316 31.5912 23.9994 29.9999 23.9994C28.4086 23.9994 26.8824 24.6316 25.7572 25.7568C24.632 26.882 23.9999 28.4081 23.9999 29.9994C23.9999 31.5907 24.632 33.1168 25.7572 34.2421C26.8824 35.3673 28.4086 35.9994 29.9999 35.9994Z" fill="#17478B"/>
</svg>
