<svg width="72" height="72" viewBox="0 0 72 72" fill="none" xmlns="http://www.w3.org/2000/svg">
<path d="M35.688 59.418C40.8597 59.418 45.8196 57.3635 49.4766 53.7066C53.1335 50.0496 55.188 45.0897 55.188 39.918C55.188 34.7462 53.1335 29.7863 49.4766 26.1294C45.8196 22.4724 40.8597 20.418 35.688 20.418C30.5163 20.418 25.5564 22.4724 21.8994 26.1294C18.2424 29.7863 16.188 34.7462 16.188 39.918C16.188 45.0897 18.2424 50.0496 21.8994 53.7066C25.5564 57.3635 30.5163 59.418 35.688 59.418Z" fill="#FFCBD2"/>
<path d="M2.12988 34.8398L10.4909 47.2958L20.1059 35.7818" stroke="#C30012" stroke-width="3" stroke-linecap="round" stroke-linejoin="round"/>
<path d="M69.849 47.7481L61.491 35.2891L51.873 46.8061" stroke="#C30012" stroke-width="3" stroke-linecap="round" stroke-linejoin="round"/>
<path d="M61.38 35.4004C62.3951 41.8292 60.9485 48.4044 57.3289 53.8135C53.7093 59.2226 48.183 63.0677 41.853 64.5814C37.6474 65.5769 33.2578 65.4871 29.0964 64.3206C24.935 63.154 21.1383 60.9489 18.063 57.9124" stroke="#C30012" stroke-width="3" stroke-linecap="round" stroke-linejoin="round"/>
<path d="M10.5 47.2202C9.65101 43.8132 9.48599 40.2716 10.0145 36.8003C10.5431 33.329 11.7547 29.997 13.5793 26.9971C15.4039 23.9971 17.8052 21.3887 20.6444 19.3228C23.4836 17.2568 26.7042 15.7744 30.12 14.9612C34.61 13.8983 39.3043 14.0736 43.7025 15.4683C48.1008 16.8631 52.0381 19.4251 55.095 22.8812" stroke="#C30012" stroke-width="3" stroke-linecap="round" stroke-linejoin="round"/>
<path d="M34.4883 22.4883V43.4283" stroke="#C30012" stroke-width="3" stroke-linecap="round" stroke-linejoin="round"/>
<path d="M34.4883 51.6777C34.2894 51.6777 34.0986 51.5987 33.958 51.4581C33.8173 51.3174 33.7383 51.1266 33.7383 50.9277C33.7383 50.7288 33.8173 50.5381 33.958 50.3974C34.0986 50.2568 34.2894 50.1777 34.4883 50.1777" stroke="#C30012" stroke-width="3"/>
<path d="M34.4883 51.6777C34.6872 51.6777 34.878 51.5987 35.0186 51.4581C35.1593 51.3174 35.2383 51.1266 35.2383 50.9277C35.2383 50.7288 35.1593 50.5381 35.0186 50.3974C34.878 50.2568 34.6872 50.1777 34.4883 50.1777" stroke="#C30012" stroke-width="3"/>
</svg>
