<svg width="200" height="150" viewBox="0 0 200 150" fill="none" xmlns="http://www.w3.org/2000/svg">
<g clip-path="url(#clip0_5746_7150)">
<mask id="mask0_5746_7150" style="mask-type:luminance" maskUnits="userSpaceOnUse" x="0" y="7" width="198" height="143">
<path d="M197.761 7.85742H0V150H197.761V7.85742Z" fill="white"/>
</mask>
<g mask="url(#mask0_5746_7150)">
<path d="M25.3728 136.43C29.4944 136.43 32.8355 133.178 32.8355 129.166C32.8355 125.154 29.4944 121.902 25.3728 121.902C21.2513 121.902 17.9102 125.154 17.9102 129.166C17.9102 133.178 21.2513 136.43 25.3728 136.43Z" fill="#FFF6C5"/>
<mask id="mask1_5746_7150" style="mask-type:luminance" maskUnits="userSpaceOnUse" x="49" y="36" width="101" height="98">
<path d="M150 36H49V134H150V36Z" fill="white"/>
</mask>
<g mask="url(#mask1_5746_7150)">
<path d="M99.2538 125.535C121.922 125.535 140.299 107.648 140.299 85.5837C140.299 63.5194 121.922 45.6328 99.2538 45.6328C76.5854 45.6328 58.209 63.5194 58.209 85.5837C58.209 107.648 76.5854 125.535 99.2538 125.535Z" stroke="#FFCBD2" stroke-width="10"/>
<path d="M99.021 102.594C102.881 102.594 106.582 101.102 109.311 98.4461C112.04 95.7897 113.573 92.1869 113.573 88.43C113.573 84.6732 112.04 81.0704 109.311 78.414C106.582 75.7576 102.881 74.2656 99.021 74.2656C95.162 74.2656 91.4605 75.7576 88.7314 78.414C86.0023 81.0704 84.4688 84.6732 84.4688 88.43C84.4688 92.1869 86.0023 95.7897 88.7314 98.4461C91.4605 101.102 95.162 102.594 99.021 102.594Z" fill="#FFCBD2"/>
<path d="M73.9766 84.7402L80.2162 93.788L87.3916 85.4245" stroke="#C30012" stroke-width="3" stroke-linecap="round" stroke-linejoin="round"/>
<path d="M124.515 94.1164L118.277 85.0664L111.1 93.4321" stroke="#C30012" stroke-width="3" stroke-linecap="round" stroke-linejoin="round"/>
<path d="M118.194 85.1484C118.952 89.8183 117.872 94.5943 115.17 98.5233C112.469 102.453 108.345 105.246 103.622 106.345C100.483 107.068 97.2067 107.003 94.1015 106.156C90.9955 105.308 88.1627 103.707 85.8672 101.501" stroke="#C30012" stroke-width="3" stroke-linecap="round" stroke-linejoin="round"/>
<path d="M80.2248 93.7331C79.5912 91.2583 79.468 88.6862 79.8628 86.1642C80.2569 83.6429 81.1613 81.2226 82.5225 79.0435C83.8845 76.8643 85.6763 74.9699 87.7949 73.4692C89.9143 71.9685 92.3173 70.8913 94.8666 70.3009C98.2173 69.5288 101.72 69.6562 105.003 70.669C108.285 71.6823 111.223 73.5433 113.505 76.0537" stroke="#C30012" stroke-width="3" stroke-linecap="round" stroke-linejoin="round"/>
<path d="M98.125 75.7695V90.9799" stroke="#C30012" stroke-width="3" stroke-linecap="round" stroke-linejoin="round"/>
<path d="M98.1261 96.9704C97.9776 96.9704 97.8358 96.913 97.7306 96.8106C97.6254 96.7082 97.5664 96.5702 97.5664 96.4256C97.5664 96.2811 97.6254 96.1424 97.7306 96.0399C97.8358 95.9383 97.9776 95.8809 98.1261 95.8809" stroke="#C30012" stroke-width="3"/>
<path d="M98.125 96.9704C98.2735 96.9704 98.416 96.913 98.5213 96.8106C98.6257 96.7082 98.6847 96.5702 98.6847 96.4256C98.6847 96.2811 98.6257 96.1424 98.5213 96.0399C98.416 95.9383 98.2735 95.8809 98.125 95.8809" stroke="#C30012" stroke-width="3"/>
</g>
</g>
<path d="M6.71624 27.1434C10.0135 27.1434 12.6864 24.585 12.6864 21.4291C12.6864 18.2732 10.0135 15.7148 6.71624 15.7148C3.41902 15.7148 0.746094 18.2732 0.746094 21.4291C0.746094 24.585 3.41902 27.1434 6.71624 27.1434Z" fill="#AFF0FF"/>
<path d="M167.91 14.2857C172.031 14.2857 175.373 11.0877 175.373 7.14286C175.373 3.19797 172.031 0 167.91 0C163.788 0 160.447 3.19797 160.447 7.14286C160.447 11.0877 163.788 14.2857 167.91 14.2857Z" fill="#C4FBD2"/>
<path d="M193.283 147.142C196.992 147.142 199.999 144.264 199.999 140.714C199.999 137.163 196.992 134.285 193.283 134.285C189.573 134.285 186.566 137.163 186.566 140.714C186.566 144.264 189.573 147.142 193.283 147.142Z" fill="#FFCBD2"/>
</g>
<defs>
<clipPath id="clip0_5746_7150">
<rect width="200" height="150" fill="white"/>
</clipPath>
</defs>
</svg>
