<svg width="19" height="18" viewBox="0 0 19 18" fill="none" xmlns="http://www.w3.org/2000/svg">
<path d="M3.02344 9H1.02344M3.02344 9C3.02344 9.53043 3.23415 10.0391 3.60922 10.4142C3.9843 10.7893 4.493 11 5.02344 11C5.55387 11 6.06258 10.7893 6.43765 10.4142C6.81272 10.0391 7.02344 9.53043 7.02344 9M3.02344 9C3.02344 8.46957 3.23415 7.96086 3.60922 7.58579C3.9843 7.21071 4.493 7 5.02344 7C5.55387 7 6.06258 7.21071 6.43765 7.58579C6.81272 7.96086 7.02344 8.46957 7.02344 9M7.02344 9H17.0234M15.0234 15C15.0234 14.4696 14.8127 13.9609 14.4377 13.5858C14.0626 13.2107 13.5539 13 13.0234 13C12.493 13 11.9843 13.2107 11.6092 13.5858C11.2342 13.9609 11.0234 14.4696 11.0234 15M15.0234 15C15.0234 15.5304 14.8127 16.0391 14.4377 16.4142C14.0626 16.7893 13.5539 17 13.0234 17C12.493 17 11.9843 16.7893 11.6092 16.4142C11.2342 16.0391 11.0234 15.5304 11.0234 15M15.0234 15H17.0234M11.0234 15H1.02344M15.0234 3C15.0234 2.46957 14.8127 1.96086 14.4377 1.58579C14.0626 1.21071 13.5539 1 13.0234 1C12.493 1 11.9843 1.21071 11.6092 1.58579C11.2342 1.96086 11.0234 2.46957 11.0234 3M15.0234 3C15.0234 3.53043 14.8127 4.03914 14.4377 4.41421C14.0626 4.78929 13.5539 5 13.0234 5C12.493 5 11.9843 4.78929 11.6092 4.41421C11.2342 4.03914 11.0234 3.53043 11.0234 3M15.0234 3L17.0234 3M11.0234 3H1.02344" stroke="#5A5A5A" stroke-width="2" stroke-linecap="round" stroke-linejoin="round"/>
</svg>
