<svg width="391" height="60" viewBox="0 0 391 60" fill="none" xmlns="http://www.w3.org/2000/svg">
<path d="M-11 4.76032C-3.32463 3.86513 6.90921 3.18018 18.7791 3.00894C24.3683 2.92831 29.079 3.3972 33.8602 4.24152C43.5835 5.95854 49.7739 8.48346 52.9377 10.0602C60.2341 13.6967 62.82 18.1982 66.2348 20.1192C71.3807 23.0139 79.1962 21.3721 82.8013 22.1045C85.996 22.7535 88.542 23.9695 93.1831 26.6635C102.666 32.168 108.634 36.6309 112.308 37.2514C120.284 38.5985 129.398 38.9977 136.865 41.5866C140.982 43.0141 145.203 45.2945 151.2 46.5016C157.197 47.7088 164.698 47.9326 170.22 48.4395C175.741 48.9464 179.055 49.7297 183.728 51.5879C188.401 53.4461 194.332 56.3554 202.359 56.903C210.386 57.4507 220.329 55.5484 225.8 54.4565C231.271 53.3647 231.969 53.1409 232.59 52.6899C235.825 50.3407 232.339 46.8102 232.334 45.7421C232.31 40.9311 240.078 38.6756 250.145 35.8052C256.724 33.9293 268.919 31.3785 276.776 29.7135C287.836 27.3702 292.759 26.8042 299.932 24.729C305.75 23.0458 315.827 19.8564 322.26 18.0745C330.954 15.6665 334.349 15.3872 336.977 14.6006C342.011 13.0931 350.165 11.4369 360.27 10.2501C370.742 9.0201 379.958 10.1823 385.942 10.9706C392.317 13.2306 395.488 15.9365 403.914 17.8625C406.917 18.6492 410.405 19.992 414 22.0536" stroke="#C4FBD2" stroke-width="5" stroke-linecap="round"/>
</svg>
