<svg width="100" height="55" viewBox="0 0 100 55" fill="none" xmlns="http://www.w3.org/2000/svg">
<path fill-rule="evenodd" clip-rule="evenodd" d="M39.3528 26.6293C42.1017 29.9502 45.9861 30.9798 49.6039 30.1733C52.5724 29.5117 55.3695 27.6006 57.2667 24.7104C57.4607 25.4182 57.7734 26.8146 58.1074 27.348C58.9423 27.8769 59.959 27.9371 60.9828 27.7089C63.3033 27.1915 65.4664 25.1714 65.1125 24.07C63.1954 18.3821 61.5621 12.8455 60.8209 6.96716C60.3906 5.52531 58.2705 5.17527 56.4273 5.58622C54.9944 5.9055 53.7285 6.65302 53.5056 7.7397C53.4485 11.0068 53.1415 22.4473 48.5692 23.4667C48.1601 23.5584 47.7349 23.5815 47.2873 23.502C43.18 22.916 42.5391 12.6878 42.6759 9.29567C42.3111 8.26733 39.7896 8.06794 37.7305 8.43978C38.1672 9.65853 38.4331 10.976 38.4986 12.3858C38.7054 15.8035 37.997 19.3796 37.1691 22.8121C37.8063 24.2828 38.5461 25.6016 39.3535 26.6306L39.3528 26.6293ZM34.83 11.4132C34.7896 12.3653 34.8339 13.4 34.954 14.4739C34.9829 13.8347 34.9823 13.2064 34.9456 12.5935V12.566C34.9283 12.1717 34.8898 11.7876 34.8307 11.4132H34.83Z" fill="#17478B"/>
<path d="M79.3299 17.0783C80.6318 17.6182 84.0936 17.6367 87.7968 17.4085C83.827 20.8872 79.206 25.3185 78.3293 27.5303C77.7545 28.8651 77.7827 33.158 79.1501 33.4176C81.0429 33.7035 85.3119 33.9209 89.4025 33.8606C93.3177 33.8035 97.125 33.5029 98.6189 32.8182C100.446 31.0461 100.612 25.6679 98.1963 25.4942C94.9195 26.1705 91.7442 26.636 88.4943 26.7879C91.7589 22.8656 95.2997 18.7298 99.1057 15.9865C100.462 15.4781 100.022 9.34083 98.4885 9.67741C96.2926 10.1634 93.7429 10.3756 91.0858 10.414C86.9253 10.4749 82.5143 10.1211 78.9786 9.8582C76.9485 9.71331 77.7333 15.5314 79.3293 17.0783H79.3299Z" fill="#17478B"/>
<path d="M43.5218 43.6288C43.7376 43.8134 44.0253 43.8852 44.3233 43.8852C45.0324 43.8852 45.7935 43.4749 45.7517 43.1672C45.4229 42.1209 45.2687 40.5611 45.2585 39.0628C45.3407 39.1962 46.2861 40.479 47.1396 41.1355C47.4068 41.3407 47.6335 41.4227 47.8281 41.4227C48.2495 41.4227 48.5372 41.0227 48.8358 40.581C49.2161 40.0271 49.6168 39.5039 50.0587 38.9904C50.0279 40.899 50.1717 42.9511 50.552 43.6281C50.7678 43.8128 51.0555 43.8846 51.3535 43.8846C52.0523 43.8846 52.8236 43.4743 52.7825 43.1665C52.1865 41.2477 52.094 37.6671 52.5976 35.7073C52.5564 35.3072 51.9604 35.0815 51.3952 35.0815C51.1075 35.0815 50.8198 35.1431 50.6348 35.2662C50.1518 35.5944 48.1062 38.6416 47.8493 38.9705C47.0581 38.0986 46.1429 36.6106 45.516 35.5534C45.3619 35.2252 44.8994 35.0713 44.437 35.0713C43.9849 35.0713 43.5423 35.2252 43.4197 35.4919C42.9161 36.7542 42.8641 42.387 43.5224 43.6288H43.5218ZM53.297 40.5502C53.297 42.3665 54.8185 43.8647 56.6791 43.8647C58.5294 43.8647 60.0195 42.3665 60.0195 40.5502C60.0195 38.7032 58.5294 37.2055 56.6791 37.2055C54.8185 37.2055 53.297 38.7038 53.297 40.5502ZM55.5481 40.4784C55.5481 39.6366 56.0927 38.9493 56.7921 38.9493C57.4909 38.9493 58.015 39.6366 58.015 40.4784C58.015 41.3195 57.4909 42.0279 56.7921 42.0279C56.0934 42.0279 55.5481 41.3202 55.5481 40.4784ZM61.243 43.6281C61.4485 43.8128 61.7362 43.8846 62.0343 43.8846C62.733 43.8846 63.5044 43.4743 63.4736 43.1665C62.6104 40.4066 63.3297 39.3603 64.0798 39.3603C64.5731 39.3603 65.0869 39.8219 65.1588 40.5502C65.2102 41.1509 64.8506 42.8813 65.1177 43.3922C65.426 43.741 65.8884 43.8846 66.331 43.8846C66.9475 43.8846 67.5024 43.6076 67.4825 43.2486C67.092 41.6734 68.4389 38.1492 65.3342 37.6665C65.0978 37.6357 64.882 37.6152 64.6662 37.6152C64.0702 37.6152 63.5147 37.7383 62.9906 37.9332C63.0111 37.5537 63.2475 37.2459 63.0728 37.0203C62.8878 36.7843 62.4459 36.6612 62.0143 36.6612C61.5827 36.6612 61.1511 36.7946 61.0066 37.0715C60.5134 38.3025 60.5648 42.4068 61.243 43.6281ZM71.645 43.8333C72.2205 43.7 72.7651 43.4743 73.2076 43.1153C73.7831 42.5819 73.372 41.1451 72.4266 41.2067C72.2417 41.2169 71.7381 41.6721 71.3264 41.7625C71.1929 41.7933 71.0695 41.8119 70.9565 41.8119C70.6277 41.8119 70.381 41.6612 70.2475 41.2887C71.2757 41.3176 72.4164 41.2067 73.1768 40.4579C73.8858 39.6885 73.9783 38.5903 73.3823 37.7697C72.8685 37.0927 72.0561 36.7952 71.2237 36.7952C69.3637 36.7952 68.2738 38.0678 68.058 39.8732C67.8833 41.9767 68.8595 43.8852 71.0182 43.8852C71.2134 43.8852 71.4292 43.8647 71.645 43.8339V43.8333ZM71.0798 38.3743C71.8505 38.1691 72.2931 39.1128 71.3367 39.3597C71.2031 39.4007 71.0593 39.4212 70.8846 39.4212C70.7099 39.4212 70.4941 39.4007 70.2468 39.3494C70.3496 38.8673 70.7195 38.4775 71.0792 38.3749L71.0798 38.3743ZM76.9385 43.7814C77.1543 43.8224 77.3804 43.8532 77.6167 43.8532C78.2641 43.8532 78.9224 43.6685 79.5082 43.2787V43.4121C79.4671 44.5924 78.7574 45.5258 77.9558 45.5258C77.5653 45.5258 77.1543 45.3104 76.7837 44.7873C76.6604 44.5411 76.4754 44.4385 76.2494 44.4385C75.4883 44.4385 74.4093 45.7214 75.2211 46.4804C76.0336 47.2395 77.0303 47.6088 77.9963 47.6088C79.4356 47.6088 80.8023 46.7882 81.399 45.2181C82.0053 43.5967 81.7175 40.2726 81.9847 37.9024C82.0258 37.5537 82.18 37.3895 81.7998 37.1946C81.4812 37.051 80.9468 36.9177 80.4844 36.9177C79.9706 36.9177 79.5698 37.0715 79.6623 37.5229C79.6212 38.5903 79.5185 41.8119 77.9661 41.8119C77.7914 41.8119 77.6065 41.7709 77.3907 41.6785C76.2288 41.2169 76.6302 38.3954 76.8769 37.369C76.8357 37.0305 76.1061 36.8254 75.4998 36.8254C75.0991 36.8254 74.7497 36.9177 74.6777 37.1228C73.8865 39.1955 74.1537 43.1563 76.9391 43.782L76.9385 43.7814Z" fill="#17478B"/>
<path d="M13.3455 25.163C12.8304 20.8638 12.5587 16.8748 16.7386 13.843C19.2864 12.1505 21.8753 12.2819 23.4213 14.6861C25.5234 17.9666 19.1849 31.1978 19.0154 35.0598C18.8908 41.5574 25.5953 42.9787 30.9973 40.0156C32.2485 39.3296 33.4623 38.4416 34.4636 37.3017C33.8734 35.5567 33.2864 31.6658 33.8271 29.1526C34.8214 24.0994 37.0493 17.9262 36.7218 12.4896C36.2317 1.37859 21.3673 -3.03158 11.8709 2.17741C4.00707 6.04713 -1.28065 14.1943 0.270409 23.4673C1.23187 29.5174 8.09633 29.077 11.5087 27.2056C12.5889 26.6132 13.3166 25.9183 13.3455 25.1637V25.163ZM27.849 51.6452C29.5985 54.8239 33.5323 55.9176 36.7167 54.1712C39.901 52.4248 41.0853 48.5237 39.3358 45.3451C37.6486 42.2799 33.621 41.0157 30.4367 42.7621C27.2523 44.5084 26.1618 48.5801 27.849 51.6452Z" fill="#17478B"/>
<path d="M67.0693 29.811C67.7687 30.4393 68.7475 30.6836 69.7616 30.6836C72.174 30.6836 74.7616 29.2872 74.6916 28.2403C73.7822 20.5271 73.7128 17.4556 74.2369 12.0459C74.0969 10.6496 72.104 9.91681 70.181 9.91681C68.7475 9.91681 67.314 10.3707 66.8593 11.2779C65.8451 14.9078 65.4604 24.9944 67.0687 29.8104L67.0693 29.811ZM71.1605 1.92285C73.1386 1.92285 74.743 3.52369 74.743 5.49894C74.743 7.47355 73.1393 9.07504 71.1605 9.07504C69.1823 9.07504 67.578 7.47419 67.578 5.49894C67.578 3.52433 69.1817 1.92285 71.1605 1.92285ZM69.7706 7.27994C69.8657 7.36072 69.9967 7.39277 70.1271 7.39277C70.4386 7.39277 70.7726 7.21262 70.7539 7.07735C70.7 6.8972 70.6544 6.68692 70.6191 6.45804L70.8239 6.45868L71.138 6.4574C71.4309 6.84912 71.7488 7.2325 71.9183 7.32546C71.9993 7.37547 72.0988 7.39342 72.1977 7.39342C72.5047 7.39342 72.8426 7.20877 72.8291 7.07799C72.7687 6.88694 72.7205 6.65678 72.6839 6.40483C72.9042 6.3888 73.1001 6.36957 73.2607 6.34521C73.786 6.22147 73.4418 5.65217 73.1065 5.66628L72.6152 5.69577C72.6068 5.54254 72.603 5.38675 72.6024 5.23289C72.8554 5.21622 73.0802 5.19506 73.26 5.16814C73.7854 5.0444 73.4411 4.47509 73.1059 4.4892L72.63 4.51805C72.6525 4.26033 72.6884 4.02311 72.7372 3.82501C72.7192 3.64935 72.4662 3.55062 72.2228 3.55062C72.0333 3.55062 71.8528 3.60896 71.7989 3.73526C71.7392 3.88721 71.6916 4.19301 71.6621 4.56806C71.4585 4.57704 71.2639 4.58409 71.0757 4.58986C70.9248 4.30713 70.8021 4.03722 70.725 3.80707C70.6711 3.64038 70.4045 3.54101 70.1611 3.54101C69.9717 3.54101 69.7912 3.59935 69.7282 3.73462C69.6634 3.89362 69.6152 4.21673 69.5863 4.60717C69.4135 4.60588 69.2401 4.60268 69.0642 4.59883C68.5112 4.62961 68.4123 5.1239 68.892 5.20917C69.0173 5.22968 69.2543 5.24699 69.5574 5.25917C69.5542 5.43291 69.5548 5.60986 69.5587 5.7836C69.3949 5.78167 69.2305 5.77911 69.0642 5.77526C68.5112 5.80604 68.4123 6.30033 68.892 6.3856C69.0224 6.40675 69.2735 6.4247 69.594 6.43688C69.6281 6.81513 69.6852 7.12607 69.7687 7.2793L69.7706 7.27994ZM71.6313 5.27328L71.6293 5.49189C71.5805 5.42073 71.5317 5.34957 71.4842 5.27648L71.6313 5.27328ZM70.5478 5.77975C70.5439 5.71756 70.5407 5.65409 70.5381 5.59126C70.5664 5.63871 70.6075 5.70218 70.6576 5.77783L70.5478 5.77975Z" fill="#17478B"/>
</svg>
