<svg width="20" height="20" viewBox="0 0 20 20" fill="none" xmlns="http://www.w3.org/2000/svg">
<path d="M17.425 9.26658C17.425 13.3416 14.4667 17.1582 10.425 18.2749C10.15 18.3499 9.85001 18.3499 9.57501 18.2749C5.53334 17.1582 2.57501 13.3416 2.57501 9.26658V5.60824C2.57501 4.92491 3.09169 4.14991 3.73336 3.89158L8.375 1.9916C9.41667 1.5666 10.5917 1.5666 11.6333 1.9916L16.275 3.89158C16.9083 4.14991 17.4334 4.92491 17.4334 5.60824L17.425 9.26658Z" stroke="#3386CE" stroke-width="1.5" stroke-linecap="round" stroke-linejoin="round"/>
<path d="M9.99998 10.4163C10.9205 10.4163 11.6666 9.67015 11.6666 8.74967C11.6666 7.8292 10.9205 7.08301 9.99998 7.08301C9.07951 7.08301 8.33331 7.8292 8.33331 8.74967C8.33331 9.67015 9.07951 10.4163 9.99998 10.4163Z" stroke="#3386CE" stroke-width="1.5" stroke-miterlimit="10" stroke-linecap="round" stroke-linejoin="round"/>
<path d="M10 10.416V12.916" stroke="#3386CE" stroke-width="1.5" stroke-miterlimit="10" stroke-linecap="round" stroke-linejoin="round"/>
</svg>
