<svg width="20" height="20" viewBox="0 0 20 20" fill="none" xmlns="http://www.w3.org/2000/svg">
<path d="M8.953 4.066L10 5.113M10.931 6.044L11.978 7.091M12.909 8.022L13.956 9.069M14.887 10L15.934 11.047M16.981 5.4625C16.6554 5.77874 16.2184 5.95416 15.7645 5.95084C15.3106 5.94753 14.8762 5.76574 14.5552 5.44477C14.2343 5.1238 14.0525 4.68943 14.0492 4.23552C14.0458 3.78161 14.2213 3.34463 14.5375 3.019L12.2695 0.75L0.75 12.269L3.019 14.538C3.34517 14.2248 3.78111 14.052 4.23326 14.0566C4.68541 14.0612 5.11775 14.2428 5.43752 14.5625C5.75729 14.8822 5.939 15.3145 5.94367 15.7666C5.94834 16.2188 5.7756 16.6548 5.4625 16.981L7.731 19.25L19.25 7.731L16.981 5.4625Z" stroke="#17478B" stroke-width="1.04167" stroke-linecap="round" stroke-linejoin="round"/>
</svg>
