<svg width="398" height="404" viewBox="0 0 398 404" fill="none" xmlns="http://www.w3.org/2000/svg">
<path d="M212.399 369.364L127.359 113.766L172.54 102.666L212.399 369.364Z" fill="#DFF9FF"/>
<path d="M199.308 367.806L47.1263 146.522L87.441 123.055L199.308 367.806Z" fill="#E4F1FA"/>
<path d="M209.646 368.674L222.389 99.243L268.454 105.602L209.646 368.674Z" fill="#E7FEED"/>
<path d="M201.014 368.638L310.97 122.998L351.466 146.142L201.014 368.638Z" fill="#FFEAEE"/>
<g clip-path="url(#clip0_5936_24875)">
<path d="M49.9327 110.117L56.0377 115.062C56.2675 115.248 56.5429 115.369 56.8354 115.413C57.1278 115.456 57.4265 115.42 57.7004 115.309L64.8446 112.394C65.6752 112.107 66.4728 112.896 66.1945 113.73L63.2831 120.708C63.0474 121.273 63.1418 121.921 63.5307 122.393L68.6411 128.619C69.1692 129.32 68.6666 130.323 67.7871 130.316L60.0246 129.904C59.7317 129.889 59.4398 129.951 59.1792 130.086C58.9185 130.22 58.6986 130.422 58.542 130.67L54.3841 137.237C53.882 137.955 52.7718 137.787 52.5061 136.951L50.3859 129.18C50.224 128.591 49.7527 128.138 49.1555 128.003L41.7802 126.345C40.9414 126.089 40.7591 124.981 41.4714 124.47L47.9832 120.331C48.2325 120.172 48.4347 119.949 48.5686 119.686C48.7025 119.422 48.7632 119.127 48.7444 118.832L48.245 110.992C48.2313 110.113 49.2266 109.598 49.9327 110.117Z" fill="#FDD835"/>
<path d="M53.2288 116.999L50.3209 112.534C50.1666 112.281 49.8801 111.859 50.3008 111.642C50.6339 111.47 51.1733 112.07 51.1733 112.07L54.551 115.115C55.8315 116.277 55.8657 116.884 55.4978 117.444C55.0744 118.084 54.0612 118.278 53.2288 116.999Z" fill="#FFFF8D"/>
<path d="M62.5172 120.574L64.9559 115.275C65.0708 115.002 65.2964 114.545 64.8468 114.39C64.4908 114.268 64.0458 114.938 64.0458 114.938L61.1922 118.182C60.3164 119.101 59.8902 120.013 60.1827 120.732C60.5748 121.69 61.762 121.971 62.5172 120.574Z" fill="#F4B400"/>
</g>
<g clip-path="url(#clip1_5936_24875)">
<path d="M144.291 76.1714L148.905 82.5302C149.079 82.7694 149.313 82.9577 149.584 83.0754C149.856 83.1931 150.153 83.2359 150.447 83.1993L158.102 82.2365C158.979 82.1751 159.545 83.1432 159.06 83.8774L154.439 89.8616C154.064 90.3461 153.988 90.9961 154.241 91.5526L157.562 98.8911C157.891 99.7047 157.145 100.544 156.297 100.308L148.907 97.8984C148.628 97.8071 148.33 97.7919 148.044 97.8543C147.757 97.9168 147.492 98.0546 147.277 98.2536L141.558 103.517C140.887 104.081 139.858 103.631 139.819 102.755L139.786 94.6997C139.782 94.0888 139.444 93.5291 138.903 93.2442L132.21 89.7299C131.466 89.2659 131.577 88.1478 132.397 87.8395L139.76 85.5302C140.042 85.4414 140.295 85.2786 140.492 85.0588C140.69 84.8389 140.825 84.5701 140.883 84.2803L142.434 76.5783C142.649 75.7255 143.743 75.487 144.291 76.1714Z" fill="#FDD835"/>
<path d="M145.69 83.6721L144.039 78.6058C143.956 78.3217 143.788 77.8401 144.251 77.7393C144.617 77.6594 144.983 78.3786 144.983 78.3786L147.455 82.196C148.391 83.6497 148.266 84.2453 147.766 84.6902C147.191 85.1993 146.162 85.1236 145.69 83.6721Z" fill="#FFFF8D"/>
<path d="M153.734 89.5333L157.463 85.0483C157.645 84.8145 157.981 84.4317 157.587 84.1649C157.275 83.9547 156.671 84.4868 156.671 84.4868L153.074 86.8801C151.99 87.5409 151.342 88.3105 151.438 89.0812C151.568 90.1083 152.642 90.6875 153.734 89.5333Z" fill="#F4B400"/>
</g>
<g clip-path="url(#clip2_5936_24875)">
<path d="M251.248 70.3886L253.219 77.994C253.293 78.2802 253.443 78.5412 253.652 78.7499C253.862 78.9586 254.123 79.1072 254.41 79.1804L261.887 81.0826C262.726 81.3458 262.899 82.4538 262.179 82.9598L255.69 86.8408C255.165 87.155 254.856 87.732 254.888 88.3425L255.297 96.3872C255.305 97.2645 254.305 97.7729 253.602 97.2442L247.604 92.2996C247.377 92.1127 247.106 91.9896 246.816 91.9429C246.526 91.8963 246.229 91.9278 245.956 92.0343L238.709 94.8436C237.879 95.1229 237.086 94.3281 237.369 93.4977L240.283 85.9881C240.503 85.4182 240.393 84.7738 239.993 84.3105L235.047 78.593C234.524 77.8892 235.037 76.8892 235.913 76.9021L243.61 77.4436C243.905 77.4641 244.2 77.4051 244.464 77.2727C244.729 77.1403 244.953 76.9394 245.113 76.691L249.371 70.0887C249.883 69.3735 250.989 69.5516 251.248 70.3886Z" fill="#FDD835"/>
<path d="M249.809 77.8813L250.124 72.5622C250.151 72.2673 250.171 71.7578 250.638 71.8331C251.009 71.8927 251.086 72.6957 251.086 72.6957L251.992 77.1527C252.331 78.8477 251.998 79.3566 251.369 79.5878C250.648 79.8515 249.718 79.405 249.809 77.8813Z" fill="#FFFF8D"/>
<path d="M255.154 86.2771L260.264 83.4656C260.519 83.3143 260.972 83.081 260.703 82.6887C260.489 82.3789 259.733 82.6535 259.733 82.6535L255.51 83.5664C254.259 83.7852 253.375 84.2647 253.182 85.0171C252.928 86.0207 253.716 86.9523 255.154 86.2771Z" fill="#F4B400"/>
</g>
<g clip-path="url(#clip3_5936_24875)">
<path d="M348.062 108.937L347.62 116.781C347.604 117.076 347.666 117.371 347.802 117.633C347.938 117.896 348.142 118.117 348.392 118.274L354.934 122.366C355.652 122.872 355.479 123.98 354.639 124.242L347.276 125.96C346.68 126.099 346.21 126.555 346.054 127.146L343.991 134.932C343.731 135.77 342.624 135.949 342.115 135.232L337.91 128.694C337.752 128.447 337.531 128.246 337.269 128.114C337.007 127.981 336.715 127.921 336.422 127.939L328.664 128.405C327.788 128.417 327.275 127.419 327.798 126.714L332.862 120.451C333.246 119.975 333.338 119.328 333.098 118.764L330.131 111.811C329.848 110.981 330.641 110.185 331.471 110.465L338.637 113.327C338.911 113.437 339.21 113.47 339.502 113.425C339.794 113.38 340.069 113.256 340.297 113.069L346.366 108.079C347.071 107.554 348.071 108.061 348.062 108.937Z" fill="#FDD835"/>
<path d="M344.407 115.634L346.329 110.665C346.444 110.392 346.618 109.913 347.041 110.127C347.375 110.297 347.204 111.085 347.204 111.085L346.708 115.606C346.514 117.324 346.041 117.707 345.372 117.735C344.605 117.767 343.855 117.058 344.407 115.634Z" fill="#FFFF8D"/>
<path d="M346.937 125.26L352.662 124.14C352.95 124.074 353.453 123.99 353.316 123.534C353.207 123.174 352.403 123.205 352.403 123.205L348.103 122.787C346.845 122.614 345.857 122.801 345.444 123.459C344.896 124.337 345.362 125.465 346.937 125.26Z" fill="#F4B400"/>
</g>
<defs>
<clipPath id="clip0_5936_24875">
<rect width="30" height="30" fill="white" transform="translate(34.9847 115.932) rotate(-27.3192)"/>
</clipPath>
<clipPath id="clip1_5936_24875">
<rect width="30" height="30" fill="white" transform="translate(128.346 77.9111) rotate(-12.2915)"/>
</clipPath>
<clipPath id="clip2_5936_24875">
<rect width="30" height="30" fill="white" transform="translate(235.771 66.1797) rotate(9.14828)"/>
</clipPath>
<clipPath id="clip3_5936_24875">
<rect width="30" height="30" fill="white" transform="translate(334.605 100.21) rotate(26.9003)"/>
</clipPath>
</defs>
</svg>
