<svg xmlns="http://www.w3.org/2000/svg" version="1.1" xmlns:xlink="http://www.w3.org/1999/xlink" xmlns:svgjs="http://svgjs.dev/svgjs" width="1000" height="1000"><g clip-path="url(#SvgjsClipPath1040)"><rect width="1000" height="1000" fill="#ffffff"></rect><g transform="matrix(2.845528455284553,0,0,2.845528455284553,150,306.5040650406504)"><svg xmlns="http://www.w3.org/2000/svg" version="1.1" xmlns:xlink="http://www.w3.org/1999/xlink" xmlns:svgjs="http://svgjs.dev/svgjs" width="246" height="136"><svg width="246" height="136" viewBox="0 0 246 136" fill="none" xmlns="http://www.w3.org/2000/svg">
<path fill-rule="evenodd" clip-rule="evenodd" d="M96.8075 65.6254C103.57 73.8096 113.125 76.347 122.025 74.3594C129.328 72.7289 136.208 68.019 140.876 60.8966C141.353 62.6409 142.122 66.082 142.944 67.3965C144.998 68.7 147.499 68.8485 150.017 68.2861C155.726 67.011 161.047 62.0326 160.176 59.3182C155.46 45.3009 151.442 31.6564 149.619 17.1698C148.56 13.6165 143.345 12.7539 138.811 13.7666C135.286 14.5534 132.172 16.3956 131.623 19.0737C131.483 27.1251 130.728 55.3194 119.48 57.8315C118.473 58.0574 117.427 58.1143 116.326 57.9184C106.222 56.4743 104.646 31.2678 104.982 22.9082C104.085 20.374 97.8819 19.8826 92.8165 20.799C93.8909 23.8025 94.545 27.0493 94.7061 30.5236C95.2149 38.9463 93.4722 47.7593 91.4356 56.2184C93.003 59.8428 94.823 63.0928 96.809 65.6286L96.8075 65.6254ZM85.6814 28.1268C85.5819 30.473 85.6909 33.0231 85.9864 35.6695C86.0575 34.0943 86.0559 32.5459 85.9658 31.0355V30.9676C85.9232 29.9959 85.8284 29.0495 85.683 28.1268H85.6814Z" fill="#2364AA"></path>
<path d="M195.152 42.0888C198.354 43.4191 206.87 43.4649 215.98 42.9024C206.215 51.4753 194.847 62.3959 192.69 67.8467C191.276 71.1362 191.346 81.7156 194.709 82.3555C199.366 83.0601 209.867 83.5957 219.93 83.4472C229.562 83.3066 238.928 82.5656 242.603 80.8782C247.097 76.5112 247.505 63.257 241.563 62.8288C233.502 64.4957 225.691 65.6427 217.696 66.0172C225.727 56.351 234.437 46.1587 243.8 39.3981C247.135 38.1452 246.055 23.0203 242.282 23.8498C236.88 25.0474 230.608 25.5703 224.071 25.6651C213.836 25.8152 202.985 24.9431 194.288 24.2953C189.293 23.9383 191.224 38.2763 195.15 42.0888H195.152Z" fill="#2364AA"></path>
<path d="M107.064 107.521C107.595 107.976 108.303 108.153 109.036 108.153C110.78 108.153 112.653 107.142 112.55 106.384C111.741 103.805 111.362 99.961 111.337 96.2687C111.539 96.5973 113.864 99.7588 115.964 101.377C116.621 101.882 117.179 102.084 117.658 102.084C118.694 102.084 119.402 101.099 120.137 100.01C121.072 98.6449 122.058 97.3557 123.145 96.0901C123.069 100.794 123.423 105.851 124.358 107.52C124.889 107.975 125.597 108.152 126.33 108.152C128.049 108.152 129.947 107.14 129.846 106.382C128.379 101.653 128.152 92.8291 129.391 87.9992C129.29 87.0133 127.823 86.4572 126.433 86.4572C125.725 86.4572 125.017 86.6088 124.562 86.9122C123.374 87.7211 118.342 95.2307 117.71 96.0412C115.764 93.8924 113.512 90.2254 111.97 87.62C111.591 86.8111 110.453 86.4319 109.316 86.4319C108.203 86.4319 107.115 86.8111 106.813 87.4683C105.574 90.5793 105.446 104.461 107.066 107.521H107.064ZM131.111 99.9342C131.111 104.41 134.854 108.103 139.431 108.103C143.983 108.103 147.649 104.41 147.649 99.9342C147.649 95.3823 143.983 91.6916 139.431 91.6916C134.854 91.6916 131.111 95.3839 131.111 99.9342ZM136.649 99.7572C136.649 97.6827 137.989 95.989 139.709 95.989C141.428 95.989 142.718 97.6827 142.718 99.7572C142.718 101.83 141.428 103.576 139.709 103.576C137.99 103.576 136.649 101.832 136.649 99.7572ZM150.658 107.52C151.164 107.975 151.872 108.152 152.605 108.152C154.324 108.152 156.221 107.14 156.146 106.382C154.022 99.5803 155.792 97.0018 157.637 97.0018C158.85 97.0018 160.114 98.1394 160.291 99.9342C160.418 101.415 159.533 105.679 160.19 106.938C160.949 107.798 162.086 108.152 163.175 108.152C164.692 108.152 166.057 107.469 166.008 106.584C165.047 102.702 168.36 94.0172 160.723 92.8275C160.141 92.7517 159.61 92.7011 159.08 92.7011C157.613 92.7011 156.247 93.0045 154.957 93.4848C155.008 92.5495 155.589 91.7911 155.16 91.2349C154.705 90.6535 153.618 90.3502 152.556 90.3502C151.494 90.3502 150.432 90.6788 150.077 91.3614C148.864 94.3949 148.99 104.51 150.658 107.52ZM176.247 108.025C177.663 107.696 179.003 107.14 180.091 106.256C181.507 104.941 180.496 101.4 178.17 101.552C177.715 101.577 176.476 102.699 175.464 102.922C175.135 102.998 174.832 103.044 174.554 103.044C173.745 103.044 173.138 102.672 172.809 101.754C175.339 101.825 178.145 101.552 180.016 99.7067C181.76 97.8107 181.987 95.1042 180.521 93.0819C179.257 91.4135 177.258 90.6804 175.211 90.6804C170.635 90.6804 167.954 93.8166 167.423 98.2657C166.994 103.45 169.395 108.153 174.705 108.153C175.186 108.153 175.716 108.103 176.247 108.027V108.025ZM174.857 94.5718C176.753 94.0662 177.841 96.3919 175.489 97.0002C175.16 97.1013 174.806 97.1519 174.377 97.1519C173.947 97.1519 173.416 97.1013 172.808 96.9749C173.061 95.7868 173.971 94.8262 174.855 94.5734L174.857 94.5718ZM189.269 107.897C189.8 107.998 190.356 108.074 190.938 108.074C192.53 108.074 194.15 107.619 195.591 106.658V106.987C195.49 109.896 193.744 112.196 191.772 112.196C190.811 112.196 189.8 111.665 188.889 110.376C188.585 109.769 188.13 109.517 187.574 109.517C185.702 109.517 183.047 112.678 185.045 114.549C187.043 116.419 189.495 117.329 191.871 117.329C195.412 117.329 198.774 115.307 200.242 111.438C201.734 107.442 201.026 99.2501 201.683 93.409C201.784 92.5495 202.163 92.145 201.228 91.6647C200.444 91.3108 199.13 90.9822 197.992 90.9822C196.728 90.9822 195.742 91.3613 195.97 92.4736C195.869 95.1042 195.616 103.044 191.797 103.044C191.367 103.044 190.912 102.942 190.382 102.715C187.523 101.577 188.511 94.6239 189.118 92.0944C189.017 91.2602 187.222 90.7546 185.73 90.7546C184.744 90.7546 183.885 90.9822 183.708 91.4877C181.761 96.5957 182.419 106.357 189.271 107.899L189.269 107.897Z" fill="#2364AA"></path>
<path d="M32.8299 62.0121C31.5628 51.417 30.8945 41.5865 41.1768 34.1149C47.4445 29.9438 53.8133 30.2677 57.6162 36.1925C62.7874 44.2771 47.1948 76.8842 46.7777 86.4019C46.4712 102.415 62.9644 105.917 76.2533 98.6149C79.3311 96.9243 82.3172 94.7361 84.7804 91.927C83.3284 87.6263 81.8843 78.0376 83.2146 71.8442C85.6604 59.391 91.1412 44.1776 90.3355 30.7796C89.13 3.39742 52.5635 -7.47108 29.2023 5.36605C9.85738 14.9026 -3.15038 34.9807 0.665206 57.8331C3.0304 72.7432 19.9169 71.6577 28.3112 67.0459C30.9687 65.586 32.7588 63.8733 32.8299 62.0137V62.0121ZM68.5084 127.275C72.8122 135.109 82.4894 137.804 90.3228 133.5C98.1562 129.196 101.07 119.582 96.7659 111.749C92.6153 104.195 82.7075 101.08 74.874 105.383C67.0406 109.687 64.3579 119.722 68.5084 127.275Z" fill="#2364AA"></path>
<path d="M164.99 73.4669C166.71 75.0152 169.118 75.6172 171.613 75.6172C177.547 75.6172 183.913 72.176 183.74 69.596C181.503 50.5876 181.333 43.018 182.622 29.6863C182.277 26.2452 177.375 24.4393 172.644 24.4393C169.118 24.4393 165.591 25.5579 164.473 27.7936C161.978 36.7393 161.032 61.5967 164.988 73.4653L164.99 73.4669ZM175.054 4.73889C179.92 4.73889 183.867 8.68402 183.867 13.5519C183.867 18.4181 179.922 22.3648 175.054 22.3648C170.188 22.3648 166.241 18.4197 166.241 13.5519C166.241 8.6856 170.186 4.73889 175.054 4.73889ZM171.635 17.941C171.869 18.14 172.191 18.219 172.512 18.219C173.278 18.219 174.1 17.7751 174.054 17.4417C173.921 16.9977 173.809 16.4795 173.722 15.9155L174.226 15.9171L174.999 15.9139C175.719 16.8793 176.501 17.8241 176.918 18.0532C177.117 18.1764 177.362 18.2206 177.605 18.2206C178.361 18.2206 179.192 17.7656 179.159 17.4433C179.01 16.9725 178.892 16.4053 178.801 15.7843C179.343 15.7448 179.825 15.6974 180.22 15.6374C181.513 15.3325 180.666 13.9295 179.841 13.9642L178.632 14.0369C178.612 13.6593 178.602 13.2754 178.601 12.8962C179.223 12.8551 179.776 12.803 180.219 12.7366C181.511 12.4317 180.664 11.0287 179.839 11.0634L178.669 11.1345C178.724 10.4994 178.813 9.91481 178.933 9.4266C178.888 8.99369 178.266 8.7504 177.667 8.7504C177.201 8.7504 176.757 8.89417 176.624 9.20542C176.477 9.57987 176.36 10.3335 176.288 11.2578C175.787 11.2799 175.308 11.2973 174.845 11.3115C174.474 10.6147 174.172 9.94958 173.983 9.38238C173.85 8.97159 173.194 8.72669 172.595 8.72669C172.129 8.72669 171.685 8.87047 171.531 9.20384C171.371 9.59567 171.252 10.392 171.181 11.3542C170.756 11.351 170.33 11.3431 169.897 11.3336C168.537 11.4095 168.293 12.6276 169.473 12.8377C169.782 12.8883 170.365 12.9309 171.11 12.961C171.102 13.3891 171.104 13.8252 171.113 14.2534C170.711 14.2486 170.306 14.2423 169.897 14.2328C168.537 14.3087 168.293 15.5268 169.473 15.7369C169.794 15.7891 170.412 15.8333 171.2 15.8633C171.284 16.7955 171.425 17.5618 171.63 17.9394L171.635 17.941ZM176.212 12.9957L176.207 13.5345C176.087 13.3591 175.967 13.1837 175.85 13.0036L176.212 12.9957ZM173.547 14.2439C173.537 14.0906 173.529 13.9342 173.523 13.7794C173.592 13.8963 173.693 14.0527 173.817 14.2392L173.547 14.2439Z" fill="#2364AA"></path>
</svg></svg></g></g><defs><clipPath id="SvgjsClipPath1040"><rect width="1000" height="1000" x="0" y="0" rx="500" ry="500"></rect></clipPath></defs></svg>